<svg xmlns="http://www.w3.org/2000/svg" width="38" height="32"><path fill="#d31342" d="M37.92 15.328c.694-.643.627-1.635-.15-2.211L20.608.426a2.423 2.423 0 0 0-1.377-.425c-.53 0-1.021.169-1.421.455l.007-.005L.598 13.795c-.765.589-.8 1.581-.083 2.208l.432.384c.714.627 1.872.704 2.582.163l1.286-.973v14.262c0 .874.842 1.581 1.875 1.581h6.71c1.037 0 1.875-.704 1.875-1.581v-9.978h8.56v9.978c-.013.874.726 1.581 1.76 1.581h7.114c1.034 0 1.872-.707 1.872-1.584V15.778l.797.589c.435.323 1.357.064 2.051-.582l.49-.454z"/></svg>