<svg xmlns="http://www.w3.org/2000/svg" width="28" height="32"><path fill="#ffa4b9" opacity=".983" d="M6.881.249c-2.31.404-4.087 1.602-5.333 3.592C.339 5.999-.047 8.302.387 10.749c.52 2.716 1.699 5.093 3.537 7.13a20.88 20.88 0 0 0 7.682 5.25c.028 2.855.037 5.711.028 8.566h2.1v-7.848h.774v7.848l-.026-.001a18.827 18.827 0 0 0 2.099-.055l.055-8.511c3.551-1.397 6.48-3.607 8.788-6.632 2.175-3.006 2.948-6.34 2.321-10.003-.67-3.027-2.466-5.045-5.389-6.052-3.063-.575-5.799.116-8.207 2.073C12.028.822 9.606.066 6.881.248zm13.264 1.989c2.488.107 4.228 1.304 5.223 3.592a7.33 7.33 0 0 1 .497 3.206.854.854 0 0 1-.415.304 18.827 18.827 0 0 1-6.135 1.437c-.974.2-1.591.78-1.851 1.741-.054.38-.093.839-.11 1.303l-.001.024-.055 2.763c-.11.364-.312.419-.608.166l-.055-.221c0-1.731-.061-3.448-.179-5.149l.013.23a1.986 1.986 0 0 0-.636-1.188 47.411 47.411 0 0 0-2.734-1.443l-.361-.16a85.633 85.633 0 0 1-3.8-2.614l.262.182a12.647 12.647 0 0 0-5.582-1.934c1.343-1.762 3.112-2.462 5.306-2.1a7.466 7.466 0 0 1 3.261 1.326c.52.381.97.743 1.404 1.124l-.022-.019c.477.221.919.166 1.326-.166 1.483-1.382 3.233-2.183 5.25-2.404zM2.57 6.549a9.709 9.709 0 0 1 5.637 1.686 56.32 56.32 0 0 0 3.253 2.291l.229.141c.686.393 1.539.818 2.416 1.2l.182.071.138.138c.063 1.31.103 2.875.11 4.448v.029c.116 1.525.936 2.336 2.459 2.432 1.25-.043 2.033-.67 2.349-1.879.063-1.071.103-2.345.11-3.626v-.021c.011-.212.06-.41.142-.59l-.004.01c.096-.051.207-.089.325-.11l.007-.001a19.974 19.974 0 0 0 5.527-1.188c-.661 2.324-1.896 4.305-3.703 5.941a21.08 21.08 0 0 1-7.627 4.283c-3.698-1.112-6.784-3.139-9.257-6.079-2.15-2.705-2.915-5.763-2.294-9.174z"/></svg>