<svg version="1.0" xmlns="http://www.w3.org/2000/svg" width="682.667" height="682.667" viewBox="0 0 512 512"><g fill="#d41443"><path d="M235.5.6c-1.6.2-7.2.9-12.3 1.5-17.9 2.1-43.7 9.5-66.2 19.1-47.7 20.4-88.4 53.6-115.3 94.3-19.2 29.1-32.1 63.2-37.8 100.6-3 19.2-3.3 58-.6 76.4C13.1 358.7 43.9 414 93 453.3c25.7 20.7 62 38.3 71.4 34.7 5-1.9 2.6-9-6.2-18.3-2.1-2.1-9-8.1-15.4-13.3-29.2-23.7-33.1-31.7-34.8-71.4-1.4-33.1-4.6-44.9-15.6-57.2-11.1-12.2-15.1-24-14.2-41.1.7-12.5 3.3-18.8 11-27.3 9.6-10.7 14.7-24.3 16.8-45.2 1.8-18 5.5-30.5 13.8-46.6 11.7-22.8 30.3-42.9 54.7-59.2 53-35.3 113.5-35.1 166.6.4 24.2 16.2 42.7 36.5 54.6 59.9 8.3 16.1 11 26.1 14.3 51.6 1.1 9.3 4.9 22.6 8.1 29 1.1 2 4.6 6.7 7.9 10.2 7.9 8.8 10.2 14.8 10.8 28.5.7 16.8-3 27.6-13.1 38.7-6.4 7.1-7.8 9.2-10.5 16.4-3.8 10.3-5.4 20.8-6.3 42.9-.5 11.8-1.5 24.5-2.3 28.3-3.2 14.3-10.1 23.4-32.2 41.8-14.7 12.3-21.4 19.3-23.8 25-4.2 10.1 8 9 30.1-2.6 65.3-34.4 116.4-110.1 129-191 2.4-15.4 2.4-47.8 0-63.5-7.1-45.2-25.6-86.7-55.3-124-8.7-10.9-30.5-32.6-41.4-41.4-40.7-32.5-90.3-53.2-138-57.5-10.8-1-30.7-1.2-37.5-.5z"/><path d="M254 112.8c-6.3.7-22.5 4.8-32.8 8.4-15.1 5.2-28.6 11.5-38.8 18.3-8.6 5.7-12.4 9.8-12.4 13.3 0 7.4 30.4 21.5 61 28.4 8.6 1.9 13.4 2.3 26.5 2.3s17.9-.4 26.5-2.3c31.1-7 61-21 61-28.7 0-3-7.7-10.1-16.9-15.4-22.6-13.3-60.9-25.8-74.1-24.3zM146.8 190.6c-5.2 1.5-9.9 31.3-6.8 42.6 3.1 11.2 17.4 12.7 117.5 12.7 98.3 0 112.9-1.4 117.2-11.7 2.4-5.8 1.4-27.9-1.6-34.9-5.1-11.6-13.4-11.7-38-.3-24.4 11.3-41.6 14.5-77.6 14.5-34.8 0-53-3.2-75.2-13.4-16.2-7.4-30-11.1-35.5-9.5zM133.8 279.1c-5.3.4-11.4 1.3-13.6 1.9-6.7 1.7-10.6 8.1-8.6 13.5 1 2.4 9 6.1 17.4 7.9 16.7 3.6 24.5 3.9 94.5 4.5l70 .6.6 27c.6 28 1.4 33.5 5.6 40.8 2.6 4.3 6 4.3 8.9-.1 3.4-4.9 4.4-10.9 5.4-31.3 1.6-34.1 2.2-34.7 38.5-38.4 22.2-2.3 38.7-6.7 43-11.5 1.6-1.7 1.5-1.9-.8-3.4-6.4-4.2-59.2-9-128.7-11.6-30.6-1.1-117.9-1.1-132.2.1z"/><path d="M139.3 365.7c.5 30.4 1.7 38.3 7.2 47.7 3.1 5.3 10.8 12.7 16.1 15.4 6.7 3.4 19.7 7 31 8.6 18.8 2.7 60.8 4 90 2.8 48.6-2.1 67.3-6.8 79.8-20.2 8.5-9.1 11.5-19 12.3-40.6.9-22.6-2-35.2-8.9-39.4-6.8-4.1-14.5-1.2-18.6 7.2-1.8 3.5-2.5 7.3-3.2 16-1.6 21.8-8.7 33.6-25 41.2-5.5 2.6-8 3.1-16.2 3.4-12.4.5-20.9-1.8-29.7-8.3-10.8-7.9-15.7-17.4-20.6-39.7-2.6-11.9-7.3-17.3-17.3-19.9-3.2-.8-19.8-1.3-51.1-1.6l-46.3-.5.5 27.9zM227.8 472c-12.5 1-20.7 3.1-23.4 6.1-2.6 2.9-2.3 10.5.6 15.8 4.1 7.2 13 12.1 28.5 15.7 12 2.8 38.7 2.6 51-.5 19.2-4.7 29.5-12.6 29.5-22.5 0-7.1-6.3-11.2-21-13.6-8.7-1.4-51.9-2.1-65.2-1z"/></g></svg>