<?xml version="1.0" standalone="no"?>
<!DOCTYPE svg PUBLIC "-//W3C//DTD SVG 20010904//EN"
 "http://www.w3.org/TR/2001/REC-SVG-20010904/DTD/svg10.dtd">
<svg version="1.0" xmlns="http://www.w3.org/2000/svg"
 width="512.000000pt" height="512.000000pt" viewBox="0 0 512.000000 512.000000"
 preserveAspectRatio="xMidYMid meet">
<metadata>
Created by potrace 1.14, written by Peter Selinger 2001-2017
</metadata>
<g transform="translate(0.000000,512.000000) scale(0.100000,-0.100000)"
fill="#d41443" stroke="none">
<path d="M2355 5114 c-16 -2 -72 -9 -123 -15 -179 -21 -437 -95 -662 -191
-477 -204 -884 -536 -1153 -943 -192 -291 -321 -632 -378 -1006 -30 -192 -33
-580 -6 -764 98 -662 406 -1215 897 -1608 257 -207 620 -383 714 -347 50 19
26 90 -62 183 -21 21 -90 81 -154 133 -292 237 -331 317 -348 714 -14 331 -46
449 -156 572 -111 122 -151 240 -142 411 7 125 33 188 110 273 96 107 147 243
168 452 18 180 55 305 138 466 117 228 303 429 547 592 530 353 1135 351 1666
-4 242 -162 427 -365 546 -599 83 -161 110 -261 143 -516 11 -93 49 -226 81
-290 11 -20 46 -67 79 -102 79 -88 102 -148 108 -285 7 -168 -30 -276 -131
-387 -64 -71 -78 -92 -105 -164 -38 -103 -54 -208 -63 -429 -5 -118 -15 -245
-23 -283 -32 -143 -101 -234 -322 -418 -147 -123 -214 -193 -238 -250 -42
-101 80 -90 301 26 653 344 1164 1101 1290 1910 24 154 24 478 0 635 -71 452
-256 867 -553 1240 -87 109 -305 326 -414 414 -407 325 -903 532 -1380 575
-108 10 -307 12 -375 5z"/>
<path d="M2540 3992 c-63 -7 -225 -48 -328 -84 -151 -52 -286 -115 -388 -183
-86 -57 -124 -98 -124 -133 0 -74 304 -215 610 -284 86 -19 134 -23 265 -23
131 0 179 4 265 23 311 70 610 210 610 287 0 30 -77 101 -169 154 -226 133
-609 258 -741 243z"/>
<path d="M1468 3214 c-52 -15 -99 -313 -68 -426 31 -112 174 -127 1175 -127
983 0 1129 14 1172 117 24 58 14 279 -16 349 -51 116 -134 117 -380 3 -244
-113 -416 -145 -776 -145 -348 0 -530 32 -752 134 -162 74 -300 111 -355 95z"/>
<path d="M1338 2329 c-53 -4 -114 -13 -136 -19 -67 -17 -106 -81 -86 -135 10
-24 90 -61 174 -79 167 -36 245 -39 945 -45 l700 -6 6 -270 c6 -280 14 -335
56 -408 26 -43 60 -43 89 1 34 49 44 109 54 313 16 341 22 347 385 384 222 23
387 67 430 115 16 17 15 19 -8 34 -64 42 -592 90 -1287 116 -306 11 -1179 11
-1322 -1z"/>
<path d="M1393 1463 c5 -304 17 -383 72 -477 31 -53 108 -127 161 -154 67 -34
197 -70 310 -86 188 -27 608 -40 900 -28 486 21 673 68 798 202 85 91 115 190
123 406 9 226 -20 352 -89 394 -68 41 -145 12 -186 -72 -18 -35 -25 -73 -32
-160 -16 -218 -87 -336 -250 -412 -55 -26 -80 -31 -162 -34 -124 -5 -209 18
-297 83 -108 79 -157 174 -206 397 -26 119 -73 173 -173 199 -32 8 -198 13
-511 16 l-463 5 5 -279z"/>
<path d="M2278 400 c-125 -10 -207 -31 -234 -61 -26 -29 -23 -105 6 -158 41
-72 130 -121 285 -157 120 -28 387 -26 510 5 192 47 295 126 295 225 0 71 -63
112 -210 136 -87 14 -519 21 -652 10z"/>
</g>
</svg>
