<!-- Generated by IcoMoon.io -->
<svg version="1.1" xmlns="http://www.w3.org/2000/svg" width="38" height="32" viewBox="0 0 38 32">
<title>Home</title>
<path fill="#d31342" d="M37.92 15.328c0.694-0.643 0.627-1.635-0.15-2.211l-17.162-12.691c-0.385-0.266-0.863-0.425-1.377-0.425-0.53 0-1.021 0.169-1.421 0.455l0.007-0.005-17.219 13.344c-0.765 0.589-0.8 1.581-0.083 2.208l0.432 0.384c0.714 0.627 1.872 0.704 2.582 0.163l1.286-0.973v14.262c0 0.874 0.842 1.581 1.875 1.581h6.71c1.037 0 1.875-0.704 1.875-1.581v-9.978h8.56v9.978c-0.013 0.874 0.726 1.581 1.76 1.581h7.114c1.034 0 1.872-0.707 1.872-1.584v-14.058l0.797 0.589c0.435 0.323 1.357 0.064 2.051-0.582l0.49-0.454z"></path>
</svg>
