<!-- Generated by IcoMoon.io -->
<svg version="1.1" xmlns="http://www.w3.org/2000/svg" width="28" height="32" viewBox="0 0 28 32">
<title>Vector</title>
<path fill="#ffa4b9" opacity="0.983" d="M6.881 0.249c-2.31 0.404-4.087 1.602-5.333 3.592-1.209 2.158-1.595 4.461-1.161 6.908 0.52 2.716 1.699 5.093 3.537 7.13 2.162 2.325 4.722 4.075 7.682 5.25 0.028 2.855 0.037 5.711 0.028 8.566h2.1v-7.848h0.774v7.848l-0.026-0.001c0.179 0.005 0.358 0.007 0.537 0.007 0.55 0 1.094-0.022 1.562-0.062l0.055-8.511c3.551-1.397 6.48-3.607 8.788-6.632 2.175-3.006 2.948-6.34 2.321-10.003-0.67-3.027-2.466-5.045-5.389-6.052-3.063-0.575-5.799 0.116-8.207 2.073-2.121-1.692-4.543-2.448-7.268-2.266zM20.145 2.238c2.488 0.107 4.228 1.304 5.223 3.592 0.405 1.032 0.571 2.1 0.497 3.206-0.107 0.144-0.245 0.245-0.415 0.304-1.962 0.823-4.006 1.302-6.135 1.437-0.974 0.2-1.591 0.78-1.851 1.741-0.054 0.38-0.093 0.839-0.11 1.303l-0.001 0.024-0.055 2.763c-0.11 0.364-0.312 0.419-0.608 0.166l-0.055-0.221c-0-1.731-0.061-3.448-0.179-5.149l0.013 0.23c-0.074-0.471-0.286-0.867-0.636-1.188-0.69-0.402-1.704-0.937-2.734-1.443l-0.361-0.16c-1.514-0.988-2.667-1.788-3.8-2.614l0.262 0.182c-1.703-1.084-3.564-1.728-5.582-1.934 1.343-1.762 3.112-2.462 5.306-2.1 1.195 0.183 2.282 0.625 3.261 1.326 0.52 0.381 0.97 0.743 1.404 1.124l-0.022-0.019c0.477 0.221 0.919 0.166 1.326-0.166 1.483-1.382 3.233-2.183 5.25-2.404zM2.57 6.549c2.057-0.020 3.936 0.542 5.637 1.686 0.955 0.729 2.090 1.53 3.253 2.291l0.229 0.141c0.686 0.393 1.539 0.818 2.416 1.2l0.182 0.071 0.138 0.138c0.063 1.31 0.103 2.875 0.11 4.448l0 0.029c0.116 1.525 0.936 2.336 2.459 2.432 1.25-0.043 2.033-0.67 2.349-1.879 0.063-1.071 0.103-2.345 0.11-3.626l0-0.021c0.011-0.212 0.060-0.41 0.142-0.59l-0.004 0.010c0.096-0.051 0.207-0.089 0.325-0.11l0.007-0.001c1.899-0.134 3.741-0.53 5.527-1.188-0.661 2.324-1.896 4.305-3.703 5.941-2.231 1.954-4.773 3.382-7.627 4.283-3.698-1.112-6.784-3.139-9.257-6.079-2.15-2.705-2.915-5.763-2.294-9.174z"></path>
</svg>
